<?xml version="1.0" encoding="UTF-8" ?>
<!DOCTYPE svg PUBLIC "-//W3C//DTD SVG 1.1//EN" "http://www.w3.org/Graphics/SVG/1.1/DTD/svg11.dtd">
<svg width="27pt" height="26pt" viewBox="0 0 27 26" version="1.1" xmlns="http://www.w3.org/2000/svg">
<g id="#000000fe">
<path fill="#000000" opacity="1.00" d=" M 0.00 0.00 L 27.00 0.00 L 27.00 26.00 L 0.00 26.00 L 0.00 0.00 M 1.09 1.03 C 1.07 2.35 1.06 3.67 1.05 5.00 C 9.35 5.01 17.65 5.01 25.95 5.00 C 25.94 3.68 25.93 2.35 25.92 1.03 C 17.64 1.01 9.36 1.01 1.09 1.03 M 1.08 6.30 C 1.05 12.52 1.06 18.75 1.08 24.97 C 9.36 25.00 17.64 24.99 25.92 24.97 C 25.95 18.75 25.94 12.52 25.92 6.30 C 17.64 6.18 9.36 6.18 1.08 6.30 Z" />
<path fill="#000000" opacity="1.00" d=" M 2.94 2.46 C 6.27 2.63 1.37 5.40 2.94 2.46 Z" />
<path fill="#000000" opacity="1.00" d=" M 5.06 2.45 C 8.39 2.57 3.54 5.43 5.06 2.45 Z" />
<path fill="#000000" opacity="1.00" d=" M 7.00 2.42 C 12.35 2.57 17.73 2.12 23.06 2.60 C 23.45 2.87 24.23 3.41 24.62 3.68 C 18.76 4.16 12.87 3.84 7.00 3.93 L 7.00 2.42 Z" />
</g>
</svg>
