<?xml version="1.0" encoding="UTF-8" ?>
<!DOCTYPE svg PUBLIC "-//W3C//DTD SVG 1.1//EN" "http://www.w3.org/Graphics/SVG/1.1/DTD/svg11.dtd">
<svg width="19pt" height="36pt" viewBox="0 0 19 36" version="1.1" xmlns="http://www.w3.org/2000/svg">
<g id="#000000fc">
<path fill="#000000" opacity="1.00" d=" M 14.32 0.00 L 15.42 0.00 C 15.94 3.80 13.01 5.94 10.11 7.63 C 10.13 8.05 10.15 8.88 10.17 9.30 C 14.04 10.16 17.71 12.29 19.00 16.27 L 19.00 29.33 C 17.72 32.55 15.06 34.97 11.75 36.00 L 7.25 36.00 C 3.92 34.97 1.22 32.54 0.00 29.25 L 0.00 16.28 C 1.28 12.38 4.81 10.18 8.65 9.39 C 8.84 8.42 9.03 7.46 9.22 6.49 C 11.67 4.97 14.48 3.32 14.32 0.00 M 0.97 18.91 C 3.61 19.01 6.25 19.01 8.90 19.03 C 8.89 16.27 8.90 13.51 8.88 10.74 C 4.55 11.26 1.56 14.71 0.97 18.91 M 10.12 10.74 C 10.10 13.51 10.11 16.27 10.10 19.03 C 12.74 19.01 15.38 19.01 18.02 18.92 C 17.45 14.71 14.45 11.26 10.12 10.74 M 1.22 20.64 C 1.47 24.55 0.36 29.36 3.64 32.33 C 6.88 35.70 12.82 35.47 15.80 31.86 C 17.87 29.80 17.72 26.67 17.81 23.97 C 17.64 22.78 18.28 20.03 16.15 20.50 C 11.17 20.44 6.19 20.39 1.22 20.64 Z" />
</g>
</svg>
