<?xml version="1.0" encoding="UTF-8" standalone="no"?>
<svg
   xmlns:dc="http://purl.org/dc/elements/1.1/"
   xmlns:cc="http://creativecommons.org/ns#"
   xmlns:rdf="http://www.w3.org/1999/02/22-rdf-syntax-ns#"
   xmlns:svg="http://www.w3.org/2000/svg"
   xmlns="http://www.w3.org/2000/svg"
   id="svg8"
   version="1.1"
   viewBox="0 0 10.583333 6.7027779"
   height="6.7027779mm"
   width="10.583333mm">
  <defs
     id="defs2" />
  <metadata
     id="metadata5">
    <rdf:RDF>
      <cc:Work
         rdf:about="">
        <dc:format>image/svg+xml</dc:format>
        <dc:type
           rdf:resource="http://purl.org/dc/dcmitype/StillImage" />
        <dc:title></dc:title>
      </cc:Work>
    </rdf:RDF>
  </metadata>
  <g
     transform="translate(-16.21611,-162.58706)"
     id="layer1">
    <g
       transform="matrix(0.35277778,0,0,0.35277778,16.21611,162.58706)"
       id="#bc3d31cf">
      <path
         style="opacity:0.81000001;fill:#bc3d31"
         d="m 15.03,0 h 3.28 c 3.44,1.04 5.95,3.92 6.14,7.54 2.29,0.82 4.47,2.1 5.55,4.39 v 3.98 c -0.486868,0.390413 -1.875916,2.323114 -2.332083,2.767165 C 27.130927,19.199893 27.550869,18.253847 27.34,19 L 3.5039286,18.933036 C 1.8642857,18.167857 0.95125,17.077857 0.32,15.84 v 0 L 0,11.61 C 1.24,9.08 3.55,7.38 5.33,5.26 6.31,3.73 8.25,4.13 9.79,3.92 11.31,2.34 12.92,0.76 15.03,0 m -3.9,4.15 C 10.16,6.43 7.02,3.82 5.87,5.9 4.53,8.2 1.76,9.37 0.9,11.97 0.22,15.37 3.6,18.65 6.97,18.08 12.98,17.91 18.99,18.19 25,17.99 28.48,18 30.27,13.41 28.25,10.79 27.31,9.18 25.3,9.12 23.69,8.77 23.53,6.3 23,3.45 20.65,2.1 17.61,-0.11 12.95,0.82 11.13,4.15 Z"
         id="path4621" />
    </g>
  </g>
</svg>
