<?xml version="1.0" encoding="UTF-8" standalone="no"?>
<svg
   xmlns:dc="http://purl.org/dc/elements/1.1/"
   xmlns:cc="http://creativecommons.org/ns#"
   xmlns:rdf="http://www.w3.org/1999/02/22-rdf-syntax-ns#"
   xmlns:svg="http://www.w3.org/2000/svg"
   xmlns="http://www.w3.org/2000/svg"
   id="svg8"
   version="1.1"
   viewBox="0 0 9.1722222 8.8194447"
   height="8.8194447mm"
   width="9.1722221mm">
  <defs
     id="defs2" />
  <metadata
     id="metadata5">
    <rdf:RDF>
      <cc:Work
         rdf:about="">
        <dc:format>image/svg+xml</dc:format>
        <dc:type
           rdf:resource="http://purl.org/dc/dcmitype/StillImage" />
        <dc:title></dc:title>
      </cc:Work>
    </rdf:RDF>
  </metadata>
  <g
     transform="translate(-24.479426,-160.70994)"
     id="layer1">
    <g
       transform="matrix(0.35277778,0,0,0.35277778,24.479426,160.70994)"
       id="g4593">
      <g
         id="#e84c3dff-6">
        <path
           style="opacity:1;fill:#e84c3d"
           d="M 0,0 H 26 V 25 H 0 V 0 M 0.93,1.02 C 0.98,2.71 1.05,4.41 1.15,6.11 9.05,6.19 16.95,6.24 24.85,6.1 24.95,4.4 25.02,2.7 25.06,1 17.01,0.97 8.97,0.93 0.93,1.02 m 0.09,5.77 c -0.01,5.74 -0.01,11.49 0,17.23 7.99,0.01 15.97,0 23.96,-0.01 C 24.99,18.26 24.99,12.52 24.99,6.78 17,6.89 9.01,6.85 1.02,6.79 Z"
           id="path4566" />
      </g>
      <g
         id="#8e2e259d">
        <path
           style="opacity:0.62000002;fill:#ff0000"
           d="m 8.11,3.06 c 3,-1.64 0.3,3.29 0,0 z"
           id="path4569" />
        <path
           style="opacity:0.62000002;fill:#ff0000"
           d="m 16.41,3.02 c 3.09,-1.45 0.08,3.29 0,0 z"
           id="path4571" />
        <path
           style="opacity:0.62000002;fill:#ff0000"
           d="m 6.65,13.01 c 1.16,-1.03 2.32,-2.05 3.48,-3.08 -0.09649,2.241589 0.536333,6.305739 0.08024,8.513941 C 10.051858,19.210758 9.5956009,18.296337 9.16,19 8.99,17.01 8.97,15.02 8.96,13.03 8.38,13.02 7.23,13.02 6.65,13.01 Z"
           id="path4573" />
        <path
           style="opacity:0.62000002;fill:#ff0000"
           d="m 14.02,10.33 c 1.32,-0.01 2.914105,0.02735 4.234105,0.01735 -0.04,0.22 -0.12,1.143509 -0.16,1.363509 -1.37,0.37 -2.834701,-0.339071 -3.58914,0.808544 0.82,0.21 1.655035,0.450596 2.475035,0.660596 2.02,0.89 1.38,3.34 1.28,5.05 -2.3,0.49 -5.944702,1.420264 -5.774702,-1.989736 0.64366,0.456791 1.274562,0.991579 1.90595,1.06935 0.584971,0.07205 1.170359,-0.315247 1.766699,0.112772 0.84,-1.36 1.142053,-1.376825 0.642053,-2.806825 -1.49,-0.04 -2.413842,-0.327017 -3.753842,0.202983 C 13.526158,13.208544 13.56,11.94 14.02,10.33 Z"
           id="path4575" />
      </g>
    </g>
  </g>
</svg>
