<?xml version="1.0" encoding="UTF-8" standalone="no"?>
<svg
   xmlns:dc="http://purl.org/dc/elements/1.1/"
   xmlns:cc="http://creativecommons.org/ns#"
   xmlns:rdf="http://www.w3.org/1999/02/22-rdf-syntax-ns#"
   xmlns:svg="http://www.w3.org/2000/svg"
   xmlns="http://www.w3.org/2000/svg"
   id="svg8"
   version="1.1"
   viewBox="0 0 8.8194447 9.428772"
   height="9.428772mm"
   width="8.8194447mm">
  <defs
     id="defs2" />
  <metadata
     id="metadata5">
    <rdf:RDF>
      <cc:Work
         rdf:about="">
        <dc:format>image/svg+xml</dc:format>
        <dc:type
           rdf:resource="http://purl.org/dc/dcmitype/StillImage" />
        <dc:title></dc:title>
      </cc:Work>
    </rdf:RDF>
  </metadata>
  <g
     transform="translate(-35.655754,-156.283)"
     id="layer1">
    <g
       transform="matrix(0.35277777,0,0,0.35277777,35.655754,156.16607)"
       id="#b13a2ec3">
      <path
         style="opacity:0.76000001;fill:#b13a2e"
         d="m 8.3373509,0.33145631 7.5700001,0.0473509 C 19.227351,1.2388072 22.88,1.69 25,4.66 v 17.5 c -1.48,2.14 -4.13,4.24 -6.87,3.56 1.8,-1.07 3.93,-1.77 5.43,-3.28 0.642939,-0.972236 0.745153,-2.230908 0.61,-3.61 -7.19,3.93 -16.14,3.93 -23.34,0 -1.24969944,4.89394 4.4214724,6.431706 8.17,6.97 2.480719,0.882878 10.79633,-0.847897 12.775,-0.763214 l -2.8707,1.395003 C 15.609548,27.041105 12.398813,27.146318 9.23,27 5.88,26.17 2.15,25.32 0,22.35 V 4.84 C 2.1961581,2.2388072 3.0471567,1.7755617 6.0171567,0.61556172 M 0.46,5.87 C 2.39,8.03 4.97,9.65 7.9,9.95 13.61,10.79 20.54,10.69 24.55,5.87 21.92,1.66 16.51,0.95 11.97,0.96 7.75,1.1 2.84,1.95 0.46,5.87 m 0.1,2.28 c 0.04,2.25 0.72,4.53 2.92,5.52 5.57,2.68 12.48,2.68 18.05,-0.01 2.24,-0.99 2.85,-3.27 2.74,-5.55 -7,4.48 -16.63,4.23 -23.71,0.04 m 0.26,5.28 c -0.1,2.15 0.34,4.37 2.49,5.35 5.62,2.85 12.72,2.85 18.35,0.02 2.15,-0.99 2.64,-3.19 2.5,-5.37 -6.95,4.19 -16.38,4.17 -23.34,0 z"
         id="path4485" />
    </g>
  </g>
</svg>
