<?xml version="1.0" encoding="UTF-8" ?>
<!DOCTYPE svg PUBLIC "-//W3C//DTD SVG 1.1//EN" "http://www.w3.org/Graphics/SVG/1.1/DTD/svg11.dtd">
<svg width="12pt" height="22pt" viewBox="0 0 12 22" version="1.1" xmlns="http://www.w3.org/2000/svg">
<g id="#ffffffff">
<path fill="#ffffff" opacity="1.00" d=" M 5.24 1.06 C 7.14 0.60 9.12 0.67 11.06 0.59 C 11.06 1.44 11.07 3.14 11.07 3.99 C 10.27 4.00 8.68 4.02 7.88 4.03 C 7.77 4.88 7.55 6.60 7.44 7.45 C 8.66 7.50 9.87 7.55 11.08 7.61 C 11.03 8.44 10.93 10.11 10.88 10.94 C 10.05 10.96 8.38 11.01 7.54 11.03 C 7.55 14.45 7.55 17.87 7.54 21.29 C 6.07 21.29 4.59 21.28 3.11 21.28 C 3.12 17.86 3.11 14.43 3.11 11.01 C 2.57 11.01 1.47 11.00 0.92 10.99 C 0.92 10.13 0.92 8.42 0.92 7.57 C 1.45 7.56 2.50 7.55 3.03 7.55 C 3.12 5.27 3.00 2.44 5.24 1.06 Z" />
</g>
</svg>
