<?xml version="1.0" encoding="UTF-8" ?>
<!DOCTYPE svg PUBLIC "-//W3C//DTD SVG 1.1//EN" "http://www.w3.org/Graphics/SVG/1.1/DTD/svg11.dtd">
<svg width="26pt" height="25pt" viewBox="0 0 26 25" version="1.1" xmlns="http://www.w3.org/2000/svg">
<g id="#000000e4">
<path fill="#000000" opacity="0.89" d=" M 7.24 0.00 L 13.70 0.00 C 16.15 1.55 18.84 3.14 20.12 5.88 C 21.97 9.34 20.00 13.17 19.52 16.73 C 21.37 19.25 23.78 21.26 26.00 23.43 L 26.00 25.00 L 24.45 25.00 C 22.22 22.87 20.30 20.34 17.63 18.73 C 13.93 18.77 10.22 21.08 6.56 19.52 C 3.40 18.46 1.49 15.53 0.00 12.73 L 0.00 7.21 C 1.65 4.13 4.18 1.66 7.24 0.00 M 8.40 1.38 C 2.29 2.26 -0.96 10.17 2.82 15.06 C 6.68 21.00 16.94 19.87 19.14 13.05 C 21.93 6.60 14.92 -0.52 8.40 1.38 Z" />
</g>
</svg>
