<?xml version="1.0" encoding="UTF-8" ?>
<!DOCTYPE svg PUBLIC "-//W3C//DTD SVG 1.1//EN" "http://www.w3.org/Graphics/SVG/1.1/DTD/svg11.dtd">
<svg width="22pt" height="22pt" viewBox="0 0 22 22" version="1.1" xmlns="http://www.w3.org/2000/svg">
<g id="#ffffffff">
<path fill="#ffffff" opacity="1.00" d=" M 1.69 0.00 L 20.44 0.00 C 21.96 4.17 21.10 8.68 21.32 13.01 C 21.19 16.01 21.87 19.28 20.24 22.00 L 1.53 22.00 C 0.16 18.15 0.83 14.01 0.68 10.01 C 0.85 6.68 0.06 3.09 1.69 0.00 M 15.23 1.89 C 15.34 3.22 15.49 4.56 15.71 5.88 C 16.60 5.85 18.37 5.80 19.26 5.77 C 19.35 4.36 19.38 2.95 19.35 1.54 C 17.97 1.61 16.60 1.73 15.23 1.89 M 6.29 11.01 C 6.84 13.49 8.52 15.27 10.94 16.03 C 13.43 15.32 15.17 13.54 15.69 10.99 C 15.15 8.48 13.44 6.73 11.00 5.98 C 8.57 6.75 6.80 8.47 6.29 11.01 M 2.54 8.77 C 2.55 12.45 2.35 16.14 2.79 19.81 C 8.26 19.86 13.73 19.86 19.20 19.81 C 19.66 16.14 19.45 12.44 19.46 8.75 L 17.23 8.77 C 17.18 10.90 17.57 13.32 16.04 15.06 C 13.81 18.46 8.12 18.43 5.91 15.02 C 4.43 13.27 4.81 10.87 4.75 8.76 L 2.54 8.77 Z" />
</g>
</svg>
