<?xml version="1.0" encoding="UTF-8" ?>
<!DOCTYPE svg PUBLIC "-//W3C//DTD SVG 1.1//EN" "http://www.w3.org/Graphics/SVG/1.1/DTD/svg11.dtd">
<svg width="22pt" height="22pt" viewBox="0 0 22 22" version="1.1" xmlns="http://www.w3.org/2000/svg">
<g id="#ffffffff">
<path fill="#ffffff" opacity="1.00" d=" M 1.13 1.10 C 3.66 -0.32 6.64 1.99 4.69 4.58 C 2.28 6.39 -0.51 3.59 1.13 1.10 Z" />
<path fill="#ffffff" opacity="1.00" d=" M 0.69 7.47 C 2.10 7.46 3.51 7.46 4.92 7.46 C 4.92 12.00 4.92 16.53 4.92 21.07 C 3.51 21.08 2.10 21.08 0.69 21.07 C 0.69 16.53 0.69 12.00 0.69 7.47 Z" />
<path fill="#ffffff" opacity="1.00" d=" M 7.95 7.74 C 9.54 7.94 11.41 7.52 12.66 8.84 C 15.30 7.06 19.45 7.01 20.88 10.34 C 21.65 13.95 21.19 17.69 21.30 21.36 C 19.90 21.37 18.49 21.37 17.08 21.36 C 17.01 18.26 17.25 15.14 16.88 12.05 C 16.18 10.73 14.40 11.18 13.21 10.81 C 11.17 13.94 12.43 17.86 12.08 21.35 C 10.70 21.37 9.32 21.37 7.94 21.36 C 7.94 16.82 7.94 12.28 7.95 7.74 Z" />
</g>
</svg>
