<?xml version="1.0" encoding="UTF-8" standalone="no"?>
<svg
   xmlns:dc="http://purl.org/dc/elements/1.1/"
   xmlns:cc="http://creativecommons.org/ns#"
   xmlns:rdf="http://www.w3.org/1999/02/22-rdf-syntax-ns#"
   xmlns:svg="http://www.w3.org/2000/svg"
   xmlns="http://www.w3.org/2000/svg"
   id="svg8"
   version="1.1"
   viewBox="0 0 7.7611113 9.5249997"
   height="9.5249996mm"
   width="7.7611113mm">
  <defs
     id="defs2" />
  <metadata
     id="metadata5">
    <rdf:RDF>
      <cc:Work
         rdf:about="">
        <dc:format>image/svg+xml</dc:format>
        <dc:type
           rdf:resource="http://purl.org/dc/dcmitype/StillImage" />
        <dc:title></dc:title>
      </cc:Work>
    </rdf:RDF>
  </metadata>
  <g
     transform="translate(-21.467496,-161.64317)"
     id="layer1">
    <g
       transform="matrix(0.35277778,0,0,0.35277778,21.467496,161.64317)"
       id="#e74c3dfe">
      <path
         style="opacity:1;fill:#e74c3d"
         d="M 9.14,0.2 11.89,0 c 2.35,0.72 4.76,1.96 5.7,4.38 0.76,2.8 0.44,5.75 0.44,8.61 1.33,0 2.65,0.01 3.97,0.01 V 27 H 0 V 13 C 1.32,12.99 2.64,12.99 3.97,12.99 3.93,10.41 3.77,7.82 4.18,5.27 4.61,2.72 7.01,1.23 9.14,0.2 v 0 M 5.28,4.42 C 4.7,7.24 5.08,10.15 5.01,13 H 16.99 C 16.93,10.15 17.29,7.25 16.73,4.44 14.8,-0.24 7.23,-0.25 5.28,4.42 m -4.29,9.6 C 0.94,18.01 0.95,22.01 1.01,26 7.67,26.05 14.34,26.06 21,25.99 21.06,22 21.06,18.01 21,14.01 14.33,14 7.66,13.99 0.99,14.02 Z"
         id="path4595" />
    </g>
  </g>
</svg>
