<?xml version="1.0" encoding="UTF-8" ?>
<!DOCTYPE svg PUBLIC "-//W3C//DTD SVG 1.1//EN" "http://www.w3.org/Graphics/SVG/1.1/DTD/svg11.dtd">
<svg width="22pt" height="18pt" viewBox="0 0 22 18" version="1.1" xmlns="http://www.w3.org/2000/svg">
<g id="#ffffffff">
<path fill="#ffffff" opacity="1.00" d=" M 14.01 0.00 L 16.06 0.00 C 16.79 0.46 17.51 0.92 18.24 1.39 C 18.78 1.24 19.86 0.93 20.40 0.78 C 19.32 5.47 19.10 10.89 15.40 14.42 C 13.60 16.46 10.94 17.30 8.40 18.00 L 5.85 18.00 C 4.12 17.54 2.40 17.04 0.68 16.55 C 2.73 16.01 4.77 15.43 6.78 14.77 C 5.39 13.68 3.99 12.59 2.61 11.47 C 2.99 11.28 3.74 10.91 4.12 10.72 C 3.07 9.68 2.05 8.63 1.03 7.57 C 1.42 7.40 2.21 7.06 2.60 6.90 C 1.90 5.03 1.40 3.09 1.32 1.08 C 4.06 3.26 7.04 5.12 10.49 5.93 C 10.86 3.54 11.55 1.05 14.01 0.00 Z" />
</g>
</svg>
