<?xml version="1.0" encoding="UTF-8" standalone="no"?>
<svg
   xmlns:dc="http://purl.org/dc/elements/1.1/"
   xmlns:cc="http://creativecommons.org/ns#"
   xmlns:rdf="http://www.w3.org/1999/02/22-rdf-syntax-ns#"
   xmlns:svg="http://www.w3.org/2000/svg"
   xmlns="http://www.w3.org/2000/svg"
   id="svg8"
   version="1.1"
   viewBox="0 0 8.513423 5.997222"
   height="5.9972219mm"
   width="8.513423mm">
  <defs
     id="defs2" />
  <metadata
     id="metadata5">
    <rdf:RDF>
      <cc:Work
         rdf:about="">
        <dc:format>image/svg+xml</dc:format>
        <dc:type
           rdf:resource="http://purl.org/dc/dcmitype/StillImage" />
        <dc:title></dc:title>
      </cc:Work>
    </rdf:RDF>
  </metadata>
  <g
     transform="translate(-35.847501,-158.08677)"
     id="layer1">
    <g
       transform="matrix(0.35277777,0,0,0.35277777,35.875116,158.08677)"
       id="g4539">
      <g
         id="#e84c3dff">
        <path
           style="opacity:1;fill:#e84c3d"
           d="M 0,0 H 24 V 4 C 16,4 8,4 0,3.99 V 0 m 1.13,1.1 c 0,0.45 -0.01,1.36 -0.01,1.81 7.25,0.14 14.51,0.15 21.76,0 C 22.88,2.46 22.87,1.56 22.87,1.1 15.62,0.97 8.38,0.98 1.13,1.1 Z"
           id="path4498" />
        <path
           style="opacity:1;fill:#e84c3d"
           d="M 0,6.9 C 8,6.86 16,6.83 24,6.92 v 3.21 C 23.76,9.84 23.28,9.25 23.03,8.96 21.76,7.51 19.74,7.94 18.03,7.83 13.36,7.9 8.68,7.79 4.01,7.87 2.82,7.77 1.81,8.13 0.97,8.96 0.73,9.25 0.24,9.83 0,10.12 Z"
           id="path4500" />
        <path
           style="opacity:1;fill:#e84c3d"
           d="m 0,13 h 24 v 4 H 0 v -4 m 1.12,1.09 c 0,0.45 0.01,1.36 0.01,1.81 7.25,0.12 14.49,0.12 21.73,0 0.01,-0.45 0.02,-1.36 0.02,-1.81 -7.25,-0.15 -14.51,-0.15 -21.76,0 z"
           id="path4502" />
      </g>
      <g
         id="#0d04030f">
        <path
           style="opacity:0.06000001;fill:#0d0403"
           d="m 1.13,1.1 c 7.25,-0.12 14.49,-0.13 21.74,0 0,0.46 0.01,1.36 0.01,1.81 -7.25,0.15 -14.51,0.14 -21.76,0 0,-0.45 0.01,-1.36 0.01,-1.81 z"
           id="path4505" />
        <path
           style="opacity:0.06000001;fill:#0d0403"
           d="M 0,3.99 C 8,4 16,4 24,4 V 6.92 C 16,6.83 8,6.86 0,6.9 Z"
           id="path4507" />
        <path
           style="opacity:0.06000001;fill:#0d0403"
           d="M 0.97,8.96 C 1.81,8.13 2.82,7.77 4.01,7.87 8.68,7.79 13.36,7.9 18.03,7.83 c 1.71,0.11 3.73,-0.32 5,1.13 -7.35,0.15 -14.7,0.15 -22.06,0 z"
           id="path4509" />
        <path
           style="opacity:0.06000001;fill:#0d0403"
           d="M 0,10.99 C 8,11 16,11 24,10.99 V 13 C 16,13 8,13 0,13 Z"
           id="path4511" />
        <path
           style="opacity:0.06000001;fill:#0d0403"
           d="m 1.12,14.09 c 7.25,-0.15 14.51,-0.15 21.76,0 0,0.45 -0.01,1.36 -0.02,1.81 -7.24,0.12 -14.48,0.12 -21.73,0 0,-0.45 -0.01,-1.36 -0.01,-1.81 z"
           id="path4513" />
      </g>
      <g
         id="#6320196d">
        <path
           style="opacity:0.43000004;fill:#e84d3c;fill-opacity:0.43137255"
           d="m 0.97,8.96 c 7.4834248,0.026575 14.710236,0.1497645 22.06,0 0.25,0.29 0.73,0.88 0.97,1.17 v 0.86 C 16,11 8,11 0,10.99 V 10.12 C 0.24,9.83 0.73,9.25 0.97,8.96 Z"
           id="path4516" />
      </g>
      <path
         style="opacity:1;fill:#e84c3d;stroke-width:0.99999994"
         d="M -0.07827979,6.9834392 H 23.92172 V 10.983439 H -0.07827979 V 6.9834392 m 1.11999999,1.09 c 0,0.45 0.01,1.36 0.01,1.81 7.2500001,0.1199998 14.4899998,0.1199998 21.7299998,0 0.01,-0.45 0.02,-1.36 0.02,-1.81 -7.250001,-0.15 -2.485553,0.244244 -21.7599998,0 z"
         id="path4502-5" />
    </g>
    <path
       transform="matrix(0.26458333,0,0,0.26458333,35.655754,156.283)"
       id="path4541"
       d="M 6.653246,20.332361 0.86065252,20.31075 v -0.555249 -0.55525 L 1.5393488,18.391117 2.218045,17.581984 4.8696954,17.62841 c 2.9868797,0.0523 19.6031946,0.07726 23.8831016,0.03589 l 2.796167,-0.02703 0.660449,0.79834 0.660448,0.798339 v 0.538735 0.538734 l -3.551317,3.3e-5 c -1.953225,1.8e-5 -6.54863,0.0096 -10.212011,0.02128 -3.663381,0.01169 -9.2673605,0.01152 -12.453287,-3.66e-4 z"
       style="opacity:0.02000002;fill:#e84d3c;fill-opacity:0.43137255;fill-rule:nonzero;stroke:#2c2c2c;stroke-width:0.06313454;stroke-opacity:1" />
    <path
       transform="matrix(0.26458333,0,0,0.26458333,35.655754,156.283)"
       id="path4543"
       d="M 6.6216788,20.332361 0.82908525,20.31075 v -0.534728 -0.534728 l 0.70301985,-0.838118 0.6859399,-0.821192 2.9600794,0.05119 c 3.3725802,0.07806 25.6537956,0.06175 26.0502386,-0.01907 l 1.496348,-1.485453 -0.565113,2.253546 0.678696,0.819573 v 0.554821 0.554821 l -3.551317,3.3e-5 c -1.953225,1.8e-5 -6.54863,0.0096 -10.212011,0.02128 -3.663382,0.01169 -9.2673608,0.01152 -12.4532872,-3.66e-4 z"
       style="opacity:0.02000002;fill:#e84d3c;fill-opacity:0.43137255;fill-rule:nonzero;stroke:#2c2c2c;stroke-width:0.06313454;stroke-opacity:1" />
  </g>
</svg>
