<?xml version="1.0" encoding="UTF-8" ?>
<!DOCTYPE svg PUBLIC "-//W3C//DTD SVG 1.1//EN" "http://www.w3.org/Graphics/SVG/1.1/DTD/svg11.dtd">
<svg width="56pt" height="36pt" viewBox="0 0 56 36" version="1.1" xmlns="http://www.w3.org/2000/svg">
<g id="#e84c3dff">
<path fill="#e84c3d" opacity="1.00" d=" M 22.79 0.00 L 24.31 0.00 C 30.72 1.28 34.81 7.03 37.28 12.66 C 39.58 17.70 40.94 23.91 38.05 29.01 C 36.03 32.94 31.80 34.91 27.73 35.99 L 29.23 36.00 L 26.74 36.00 C 29.74 33.13 31.97 29.58 34.06 26.03 C 36.06 22.40 34.28 18.23 32.86 14.74 C 31.23 19.87 26.64 23.17 21.56 24.42 C 21.52 22.66 21.48 20.90 21.45 19.14 C 24.80 18.45 28.50 16.64 29.22 12.96 C 30.48 8.59 25.75 3.92 21.45 5.54 C 18.81 6.28 17.39 8.73 16.22 11.00 C 14.71 10.63 13.18 10.32 11.67 9.95 C 13.27 4.85 17.56 1.06 22.79 0.00 Z" />
</g>
<g id="#ffffffff">
<path fill="#ffffff" opacity="1.00" d=" M 37.32 6.91 C 42.13 6.53 47.62 9.06 48.82 14.09 C 49.96 20.37 47.77 26.98 44.01 32.00 C 41.98 34.80 38.47 35.61 35.23 35.92 C 38.75 32.61 42.04 28.89 43.89 24.36 L 41.95 25.01 C 41.95 24.21 41.94 22.62 41.94 21.82 C 44.07 20.66 45.75 18.53 45.20 15.95 C 45.09 12.75 41.92 11.04 39.08 10.73 C 38.50 9.46 37.90 8.18 37.32 6.91 Z" />
<path fill="#ffffff" opacity="1.00" d=" M 3.62 14.66 C 7.52 10.78 14.78 11.89 17.68 16.44 C 19.59 18.99 18.47 22.30 19.05 25.21 C 18.03 27.29 16.80 29.24 15.48 31.14 C 17.71 30.92 20.09 31.18 22.15 30.13 C 24.27 29.18 25.21 26.92 26.38 25.07 C 27.72 24.41 29.07 23.75 30.42 23.10 C 30.14 26.31 29.43 29.70 27.09 32.09 C 24.49 34.96 20.47 35.63 16.80 36.00 L 15.98 36.00 C 11.56 35.43 6.78 34.74 3.37 31.58 C 1.30 29.75 0.57 26.98 0.00 24.39 L 0.00 22.86 C 0.59 19.92 1.24 16.72 3.62 14.66 M 4.56 25.57 C 5.51 28.43 9.08 30.73 11.92 29.05 C 15.09 27.46 15.52 23.28 14.76 20.18 C 13.61 17.34 10.48 16.68 7.73 16.88 C 5.06 18.80 3.21 22.31 4.56 25.57 Z" />
<path fill="#ffffff" opacity="1.00" d=" M 50.98 17.23 C 54.18 18.41 55.38 21.75 56.00 24.82 L 56.00 26.43 C 55.49 28.27 55.08 30.27 53.78 31.74 C 51.91 33.85 49.01 34.44 46.76 36.00 L 43.78 36.00 C 45.75 32.57 49.98 32.22 52.47 29.46 C 53.94 25.31 50.82 21.41 50.98 17.23 Z" />
</g>
</svg>
