<?xml version="1.0" encoding="UTF-8" ?>
<!DOCTYPE svg PUBLIC "-//W3C//DTD SVG 1.1//EN" "http://www.w3.org/Graphics/SVG/1.1/DTD/svg11.dtd">
<svg width="76pt" height="50pt" viewBox="0 0 76 50" version="1.1" xmlns="http://www.w3.org/2000/svg">
<g id="#00000016">
<path fill="#000000" opacity="0.09" d=" M 40.15 2.38 C 47.90 2.20 54.10 7.69 58.94 13.14 C 62.96 17.84 67.24 22.56 69.74 28.29 C 72.53 35.09 67.98 42.83 61.77 45.85 C 54.05 49.62 45.21 48.23 36.93 48.45 C 28.79 48.30 20.08 49.46 12.55 45.62 C 5.97 42.22 1.36 33.80 4.46 26.60 C 7.68 18.66 14.76 13.10 21.97 8.92 C 27.61 5.82 33.62 2.80 40.15 2.38 M 26.92 13.91 C 22.24 12.45 16.91 14.68 15.63 19.63 C 12.43 21.29 9.37 23.75 8.40 27.40 C 6.03 34.20 11.77 42.06 18.93 42.01 C 31.35 42.01 43.78 42.04 56.21 42.00 C 63.08 41.91 68.21 33.92 65.31 27.64 C 63.82 23.55 59.67 21.44 55.61 20.76 C 55.59 12.93 48.84 5.97 40.98 5.96 C 35.20 5.57 29.82 9.05 26.92 13.91 Z" />
</g>
<g id="#d64638ee">
<path fill="#d64638" opacity="0.93" d=" M 26.92 13.91 C 29.82 9.05 35.20 5.57 40.98 5.96 C 48.84 5.97 55.59 12.93 55.61 20.76 C 59.67 21.44 63.82 23.55 65.31 27.64 C 68.21 33.92 63.08 41.91 56.21 42.00 C 43.78 42.04 31.35 42.01 18.93 42.01 C 11.77 42.06 6.03 34.20 8.40 27.40 C 9.37 23.75 12.43 21.29 15.63 19.63 C 16.91 14.68 22.24 12.45 26.92 13.91 M 34.49 9.46 C 31.29 10.87 29.44 13.97 27.79 16.88 C 25.70 16.13 23.43 14.92 21.22 16.01 C 19.01 16.81 18.14 19.12 17.52 21.17 C 14.65 22.53 11.56 24.24 10.60 27.52 C 8.26 33.10 13.00 39.87 18.96 39.94 C 30.30 40.06 41.66 39.96 53.01 40.00 C 55.07 39.97 57.26 40.11 59.15 39.10 C 63.51 37.25 65.39 31.23 62.72 27.27 C 60.89 23.96 56.94 23.01 53.44 22.96 C 53.40 19.82 53.20 16.46 51.31 13.82 C 47.87 8.41 40.14 6.35 34.49 9.46 Z" />
</g>
<g id="#00000014">
<path fill="#000000" opacity="0.08" d=" M 34.49 9.46 C 40.14 6.35 47.87 8.41 51.31 13.82 C 53.20 16.46 53.40 19.82 53.44 22.96 C 56.94 23.01 60.89 23.96 62.72 27.27 C 65.39 31.23 63.51 37.25 59.15 39.10 C 57.26 40.11 55.07 39.97 53.01 40.00 C 41.66 39.96 30.30 40.06 18.96 39.94 C 13.00 39.87 8.26 33.10 10.60 27.52 C 11.56 24.24 14.65 22.53 17.52 21.17 C 18.14 19.12 19.01 16.81 21.22 16.01 C 23.43 14.92 25.70 16.13 27.79 16.88 C 29.44 13.97 31.29 10.87 34.49 9.46 M 21.47 28.88 C 21.71 29.53 22.18 30.85 22.42 31.50 C 30.31 33.92 38.95 34.32 46.90 31.96 C 48.44 31.68 49.24 30.30 50.22 29.24 C 47.76 25.27 45.19 20.93 40.87 18.76 C 33.57 19.85 27.49 24.88 21.47 28.88 Z" />
</g>
</svg>
