<?xml version="1.0" encoding="UTF-8" ?>
<!DOCTYPE svg PUBLIC "-//W3C//DTD SVG 1.1//EN" "http://www.w3.org/Graphics/SVG/1.1/DTD/svg11.dtd">
<svg width="60pt" height="58pt" viewBox="0 0 60 58" version="1.1" xmlns="http://www.w3.org/2000/svg">
<g id="#00000023">
<path fill="#000000" opacity="0.14" d=" M 26.61 0.00 L 34.44 0.00 C 39.80 3.35 46.42 4.47 51.16 8.83 C 55.68 13.50 56.27 20.40 60.00 25.58 L 60.00 32.49 C 56.97 38.09 55.65 44.59 51.66 49.65 C 47.51 53.95 41.32 55.04 36.31 58.00 L 24.70 58.00 C 19.50 54.97 12.98 53.87 8.91 49.15 C 5.72 44.59 3.94 39.23 2.02 34.06 C -0.64 26.38 4.19 19.00 7.36 12.29 C 11.10 4.85 20.17 4.02 26.61 0.00 M 25.48 4.00 C 25.51 5.61 25.54 7.22 25.58 8.83 C 23.83 9.66 22.05 10.45 20.26 11.19 C 19.02 9.97 17.75 8.78 16.45 7.63 C 14.28 9.98 12.01 12.25 9.66 14.42 C 10.87 15.80 12.07 17.20 13.27 18.60 C 12.56 20.20 11.89 21.83 11.28 23.47 C 9.52 23.50 7.76 23.50 6.00 23.51 C 6.00 26.85 5.95 30.19 6.06 33.52 C 7.90 33.53 9.74 33.56 11.58 33.62 C 12.18 35.22 12.82 36.80 13.47 38.38 C 12.16 39.74 10.88 41.14 9.64 42.57 C 12.00 44.74 14.27 47.01 16.45 49.37 C 17.91 48.09 19.32 46.76 20.69 45.40 C 22.31 46.06 23.93 46.71 25.55 47.36 C 25.52 49.24 25.50 51.12 25.49 53.00 C 28.83 53.00 32.17 53.00 35.51 53.00 C 35.50 51.12 35.48 49.24 35.45 47.36 C 37.07 46.71 38.69 46.06 40.31 45.40 C 41.68 46.75 43.08 48.07 44.51 49.37 C 46.79 47.00 49.14 44.70 51.38 42.29 C 50.07 41.01 48.76 39.73 47.46 38.43 C 48.19 36.75 48.96 35.09 49.68 33.41 C 51.42 33.47 53.17 33.53 54.92 33.60 C 55.06 30.24 55.00 26.87 55.00 23.51 C 53.24 23.50 51.49 23.50 49.73 23.48 C 49.11 21.81 48.42 20.16 47.70 18.53 C 48.88 17.22 50.09 15.94 51.34 14.70 C 49.10 12.22 46.75 9.84 44.24 7.63 C 43.09 8.83 41.94 10.03 40.80 11.23 C 38.99 10.47 37.20 9.67 35.42 8.83 C 35.46 7.22 35.49 5.61 35.52 4.00 C 32.17 4.00 28.83 4.00 25.48 4.00 Z" />
<path fill="#000000" opacity="0.14" d=" M 27.74 6.01 C 29.61 6.01 31.49 6.01 33.36 6.01 C 33.36 7.56 33.36 9.12 33.35 10.67 C 35.99 11.50 38.56 12.57 40.96 13.95 C 42.14 12.84 43.33 11.74 44.53 10.65 C 45.81 12.00 47.05 13.40 48.30 14.78 C 47.18 15.87 46.07 16.96 44.96 18.05 C 46.29 20.47 47.25 23.06 48.10 25.68 C 49.73 25.66 51.36 25.64 52.99 25.63 C 52.99 27.55 52.99 29.46 52.98 31.38 C 51.32 31.36 49.66 31.33 48.01 31.31 C 47.06 33.84 45.98 36.33 44.78 38.76 C 46.02 39.98 47.21 41.25 48.35 42.56 C 46.99 43.83 45.59 45.06 44.20 46.30 C 43.04 45.10 41.88 43.89 40.72 42.69 C 38.39 43.81 36.00 44.82 33.49 45.48 C 33.41 47.31 33.36 49.15 33.31 50.99 C 31.47 50.99 29.63 50.99 27.79 50.99 C 27.74 49.13 27.66 47.28 27.54 45.42 C 25.02 44.85 22.64 43.83 20.31 42.73 C 19.10 43.93 17.86 45.11 16.59 46.25 C 15.32 44.97 14.04 43.70 12.76 42.44 C 13.89 41.16 15.06 39.90 16.25 38.68 C 14.99 36.30 13.92 33.83 13.01 31.30 C 11.34 31.33 9.68 31.35 8.01 31.38 C 8.01 29.46 8.01 27.55 8.01 25.64 C 9.65 25.64 11.30 25.65 12.94 25.66 C 13.75 23.06 14.70 20.51 16.02 18.12 C 14.91 16.94 13.82 15.75 12.75 14.55 C 14.02 13.29 15.28 12.03 16.53 10.75 C 17.72 11.80 18.90 12.87 20.07 13.94 C 22.48 12.54 25.06 11.48 27.72 10.67 C 27.73 9.12 27.73 7.56 27.74 6.01 M 27.24 20.17 C 23.74 21.47 21.33 25.16 21.65 28.91 C 21.59 33.72 26.18 37.83 30.95 37.35 C 36.12 37.40 40.27 32.14 39.26 27.12 C 38.76 21.54 32.30 18.17 27.24 20.17 Z" />
<path fill="#000000" opacity="0.14" d=" M 27.35 22.53 C 31.73 20.03 37.84 23.90 37.16 28.97 C 37.17 34.16 30.15 37.22 26.33 33.73 C 22.52 31.00 23.20 24.60 27.35 22.53 Z" />
</g>
<g id="#cd4336e7">
<path fill="#cd4336" opacity="0.91" d=" M 25.48 4.00 C 28.83 4.00 32.17 4.00 35.52 4.00 C 35.49 5.61 35.46 7.22 35.42 8.83 C 37.20 9.67 38.99 10.47 40.80 11.23 C 41.94 10.03 43.09 8.83 44.24 7.63 C 46.75 9.84 49.10 12.22 51.34 14.70 C 50.09 15.94 48.88 17.22 47.70 18.53 C 48.42 20.16 49.11 21.81 49.73 23.48 C 51.49 23.50 53.24 23.50 55.00 23.51 C 55.00 26.87 55.06 30.24 54.92 33.60 C 53.17 33.53 51.42 33.47 49.68 33.41 C 48.96 35.09 48.19 36.75 47.46 38.43 C 48.76 39.73 50.07 41.01 51.38 42.29 C 49.14 44.70 46.79 47.00 44.51 49.37 C 43.08 48.07 41.68 46.75 40.31 45.40 C 38.69 46.06 37.07 46.71 35.45 47.36 C 35.48 49.24 35.50 51.12 35.51 53.00 C 32.17 53.00 28.83 53.00 25.49 53.00 C 25.50 51.12 25.52 49.24 25.55 47.36 C 23.93 46.71 22.31 46.06 20.69 45.40 C 19.32 46.76 17.91 48.09 16.45 49.37 C 14.27 47.01 12.00 44.74 9.64 42.57 C 10.88 41.14 12.16 39.74 13.47 38.38 C 12.82 36.80 12.18 35.22 11.58 33.62 C 9.74 33.56 7.90 33.53 6.06 33.52 C 5.95 30.19 6.00 26.85 6.00 23.51 C 7.76 23.50 9.52 23.50 11.28 23.47 C 11.89 21.83 12.56 20.20 13.27 18.60 C 12.07 17.20 10.87 15.80 9.66 14.42 C 12.01 12.25 14.28 9.98 16.45 7.63 C 17.75 8.78 19.02 9.97 20.26 11.19 C 22.05 10.45 23.83 9.66 25.58 8.83 C 25.54 7.22 25.51 5.61 25.48 4.00 M 27.74 6.01 C 27.73 7.56 27.73 9.12 27.72 10.67 C 25.06 11.48 22.48 12.54 20.07 13.94 C 18.90 12.87 17.72 11.80 16.53 10.75 C 15.28 12.03 14.02 13.29 12.75 14.55 C 13.82 15.75 14.91 16.94 16.02 18.12 C 14.70 20.51 13.75 23.06 12.94 25.66 C 11.30 25.65 9.65 25.64 8.01 25.64 C 8.01 27.55 8.01 29.46 8.01 31.38 C 9.68 31.35 11.34 31.33 13.01 31.30 C 13.92 33.83 14.99 36.30 16.25 38.68 C 15.06 39.90 13.89 41.16 12.76 42.44 C 14.04 43.70 15.32 44.97 16.59 46.25 C 17.86 45.11 19.10 43.93 20.31 42.73 C 22.64 43.83 25.02 44.85 27.54 45.42 C 27.66 47.28 27.74 49.13 27.79 50.99 C 29.63 50.99 31.47 50.99 33.31 50.99 C 33.36 49.15 33.41 47.31 33.49 45.48 C 36.00 44.82 38.39 43.81 40.72 42.69 C 41.88 43.89 43.04 45.10 44.20 46.30 C 45.59 45.06 46.99 43.83 48.35 42.56 C 47.21 41.25 46.02 39.98 44.78 38.76 C 45.98 36.33 47.06 33.84 48.01 31.31 C 49.66 31.33 51.32 31.36 52.98 31.38 C 52.99 29.46 52.99 27.55 52.99 25.63 C 51.36 25.64 49.73 25.66 48.10 25.68 C 47.25 23.06 46.29 20.47 44.96 18.05 C 46.07 16.96 47.18 15.87 48.30 14.78 C 47.05 13.40 45.81 12.00 44.53 10.65 C 43.33 11.74 42.14 12.84 40.96 13.95 C 38.56 12.57 35.99 11.50 33.35 10.67 C 33.36 9.12 33.36 7.56 33.36 6.01 C 31.49 6.01 29.61 6.01 27.74 6.01 Z" />
<path fill="#cd4336" opacity="0.91" d=" M 27.24 20.17 C 32.30 18.17 38.76 21.54 39.26 27.12 C 40.27 32.14 36.12 37.40 30.95 37.35 C 26.18 37.83 21.59 33.72 21.65 28.91 C 21.33 25.16 23.74 21.47 27.24 20.17 M 27.35 22.53 C 23.20 24.60 22.52 31.00 26.33 33.73 C 30.15 37.22 37.17 34.16 37.16 28.97 C 37.84 23.90 31.73 20.03 27.35 22.53 Z" />
</g>
</svg>
